<svg width="103" height="60" viewBox="0 0 103 60" fill="none" xmlns="http://www.w3.org/2000/svg">
<g clip-path="url(#clip0_32_179)">
<path fill-rule="evenodd" clip-rule="evenodd" d="M55.0319 25.8804C60.713 22.0436 65.3839 19.2718 71.9303 16.9978C76.8266 15.297 82.7638 13.9625 87.9837 13.6657L94.1713 13.3903C94.1998 13.0275 86.0219 10.548 85.1968 10.3356C75.2935 7.78633 63.0669 7.71834 53.3203 10.5651C52.6647 11.8119 51.4071 13.4139 50.6133 14.7504C49.7025 16.2837 49.0551 17.7416 48.2871 19.3292C48.148 19.6167 48.1066 19.8434 48.1363 20.0367C48.2107 20.5196 48.7294 20.7939 49.28 21.2873C50.455 22.3402 53.9279 25.5265 55.0319 25.8804Z" fill="#F78B1F"/>
<path fill-rule="evenodd" clip-rule="evenodd" d="M65.1454 5.40787C67.9445 5.36332 70.6638 5.42964 73.4412 5.78024C74.6531 5.93326 82.1383 6.73444 87.5836 9.00331C87.8631 8.7648 80.9574 5.14215 80.3807 4.86648C77.8008 3.63378 74.8664 2.53789 72.12 1.74344C69.6973 1.0427 67.6958 0.611898 65.2601 0.134217C64.0609 -0.100958 64.0178 -0.0805727 63.1087 0.644558C61.1975 2.16914 58.6956 4.16929 57.1616 6.04485C59.8781 5.8254 62.3753 5.45197 65.1454 5.40787Z" fill="white"/>
<path fill-rule="evenodd" clip-rule="evenodd" d="M65.6009 50.9503C65.2214 50.6665 67.6363 39.8329 57.2699 38.3158C54.3722 37.8916 50.9692 38.1923 48.4944 39.8511C46.5072 41.1833 45.1076 43.2729 44.5336 46.4016C44.3953 46.3137 44.0508 44.6342 43.9425 44.3553C42.0275 39.4229 37.1509 37.3875 31.9953 38.0307C27.1692 38.6328 23.1296 42.0125 22.3867 46.7149L22.0885 48.7892C21.5896 48.3829 21.4931 47.8243 19.9478 46.9164C19.0586 46.394 18.0899 45.9987 17.1148 45.6661C14.9719 44.9351 12.7148 44.611 10.5363 44.0067C9.69398 43.7731 8.36414 43.3669 7.88029 42.5892C7.26425 41.599 7.71088 40.3512 8.66508 39.8158C10.7769 38.631 13.4361 39.4931 15.6398 39.9304L15.6266 34.7674C0.766843 32.3905 -0.766734 42.4232 2.43151 45.9922C5.62503 49.5561 13.471 49.3088 15.8361 51.187C16.8321 51.9778 16.6579 53.5729 15.6519 54.3256C14.6509 55.0746 12.9814 55.175 11.7757 55.1466C9.03944 55.0819 7.06601 54.2354 4.79536 52.8059C3.64354 52.0807 4.07173 51.7498 2.24188 53.6316L0 56.0165C0.248005 56.7625 4.60434 58.6889 5.51894 58.9921C10.4124 60.6151 19.0405 60.7325 22.068 55.8747C22.7194 54.8295 22.8207 54.0647 23.1025 52.9014C24.4655 54.8369 24.6299 56.0106 27.6121 57.6157C28.707 58.2049 29.7756 58.6392 30.9985 58.8633C32.4771 59.1343 33.9408 59.1844 35.3537 59.1121L35.3066 54.5542C34.9407 54.581 33.5756 54.5443 32.8541 54.4064C32.143 54.2704 31.5517 54.0374 30.9289 53.6695C29.7367 52.965 29.117 51.8709 28.793 50.5608L44.4738 50.5804L44.5351 58.8344L51.1707 58.825L51.1735 47.6094C51.1738 46.6712 51.3663 45.9041 51.5618 45.427C53.2018 42.1466 57.2745 42.5958 58.4277 45.1201C58.9096 46.1752 58.9414 46.6225 58.9419 47.739L58.9469 58.7621L65.4958 58.7705L65.5685 54.4162L65.6965 54.7625C67.0855 59.4745 74.8958 60.1496 78.7088 57.7397L80.2721 56.697L80.3021 58.7636C82.1768 58.7364 84.6867 58.8046 86.6303 58.8236L86.6795 50.5951C86.7372 50.5455 87.4677 54.5638 92.2831 57.4553C95.1956 59.2041 98.963 60.0633 102.345 59.8758V54.9942C90.3703 54.9782 91.1155 39.894 102.345 40.2885V35.3953C97.3513 35.3429 91.8983 36.7741 88.6839 40.8822C87.4139 42.5053 87.2735 43.2138 86.5398 45.092C86.0647 43.7785 86.2325 43.1169 85.3247 41.741C84.6785 40.7616 83.9355 40.0238 82.8962 39.457C80.1258 37.8958 77.936 38.1735 74.8039 38.1981L74.7983 42.9889C76.1789 43.0384 77.4461 42.9649 78.6551 43.7019C79.8233 44.4138 80.318 45.4292 80.2453 46.5512C80.0299 46.6359 76.3688 46.3031 75.74 46.2908C74.136 46.2596 72.7092 46.4125 71.1096 46.6143C68.4072 46.9553 66.6071 48.3429 65.6009 50.9503ZM75.1845 50.1081C76.3218 49.9939 77.4291 49.9996 78.5692 50.0662C80.034 50.1518 80.6729 49.8599 80.3237 51.6717C79.9796 53.4569 78.4564 54.5568 76.7569 54.9172C71.4475 56.0432 68.9649 50.7325 75.1845 50.1081ZM32.6943 42.6834C37.4312 41.8862 39.1254 46.8428 38.1653 46.9371C37.6282 46.9899 32.0888 46.9253 31.0064 46.9253C28.5116 46.9252 28.4948 47.1625 28.9027 45.9995C29.5416 44.1783 30.7669 43.0077 32.6943 42.6834Z" fill="white"/>
<path fill-rule="evenodd" clip-rule="evenodd" d="M49.7505 30.2834C50.6045 29.5268 51.4281 28.7856 52.2988 28.0465C53.1433 27.3296 54.2626 26.6028 55.032 25.8807C53.928 25.5267 50.455 22.3405 49.28 21.2876C48.7294 20.7942 48.2107 20.5199 48.1363 20.037C48.1066 19.8437 48.148 19.617 48.2871 19.3294C49.0551 17.7419 49.7025 16.284 50.6133 14.7506C51.4071 13.4141 52.6648 11.8122 53.3204 10.5654C50.299 11.1321 45.8677 13.1015 42.9451 14.3139C43.2297 15.0761 45.5131 17.567 46.194 18.2535C47.2272 19.2953 47.4505 19.6313 47.8139 20.0757C46.1049 24.5052 45.0112 28.8313 44.9775 35.1706C45.1505 35.2894 46.945 33.025 47.2925 32.6901C48.1181 31.8943 48.8893 31.0464 49.7505 30.2834Z" fill="#F6BF86"/>
</g>
<defs>
<clipPath id="clip0_32_179">
<rect width="102.345" height="60" fill="white"/>
</clipPath>
</defs>
</svg>
